# xmcd
#
# Track frame offsets:
#	150
#	12262
#	25087
#	39487
#	49012
#	63450
#	80887
#	91350
#	104812
#	118875
#	135862
#	152100
#	163575
#	178837
#	193612
#	210300
#	220263
#	235038
#
# Disc length: 3436 seconds
#
# Revision: 0
# Processed by: cddbd v1.5.1PL0 Copyright (c) Steve Scherf et al.
# Submitted via: audiograbber 1.83.01
#
DISCID=f60d6a12
DTITLE=Various Artist - Bluegrass Unlimited Sampler
DYEAR=2005
DGENRE=Bluegrass
TTITLE0=Lawson, Doyle and Quicksilver - Girl in the Valley
TTITLE1=Blue Highway - Endless Train
TTITLE2=Osborne, Bobby - West Virginia
TTITLE3=Open Road - Lucky Drive
TTITLE4=Nugent, Alicia - My First Mistake
TTITLE5=Cleveland, Michael - Bright and Early
TTITLE6=Crowe, J.D. and The New South - Mississippi River Raft
TTITLE7=Uncle Earl - Walking in My Sleep
TTITLE8=King, James - Coldest Day of Winter
TTITLE9=Rowan, Peter and Tony Rice - Shirt Off My Back
TTITLE10=Vincent, Rhonda and The Rage - Ghost of a Chance
TTITLE11=Grascals, The - Saro Jane
TTITLE12=Hughes, Donna - Scattered to the Wind
TTITLE13=Verch, April - Tennessee Wagonner
TTITLE14=Crooked Still - Darling Corey
TTITLE15=Rayborn, Marty - White House Blues
TTITLE16=Dry Branch Fire Squad - He's Coming to Us Dead
TTITLE17=Wayfaring Strangers - Don't This Road Look Rough and Rocky
EXTD=
EXTT0=
EXTT1=
EXTT2=
EXTT3=
EXTT4=
EXTT5=
EXTT6=
EXTT7=
EXTT8=
EXTT9=
EXTT10=
EXTT11=
EXTT12=
EXTT13=
EXTT14=
EXTT15=
EXTT16=
EXTT17=
PLAYORDER=
